# Blender v2.78 (sub 0) OBJ File: 'News Desk.blend'
# www.blender.org
mtllib News Desk Object.mtl
o Desk_Circle.001
v -2.000000 0.110000 -2.000000
v -2.368721 0.146316 -2.000000
v -2.723272 0.253868 -2.000000
v -3.050028 0.428522 -2.000000
v -3.336432 0.663568 -2.000000
v -3.571478 0.949972 -2.000000
v -3.746132 1.276728 -2.000000
v -3.853684 1.631279 -2.000000
v -3.890000 2.000000 -2.000000
v -2.000000 0.110000 -0.500000
v -2.368721 0.146316 -0.500000
v -2.723272 0.253868 -0.500000
v -3.050028 0.428522 -0.500000
v -3.336432 0.663568 -0.500000
v -3.571478 0.949972 -0.500000
v -3.746132 1.276728 -0.500000
v -3.853684 1.631279 -0.500000
v -3.890000 2.000000 -0.500000
v -2.000000 0.000000 -0.500000
v -2.390181 0.038429 -0.500000
v -2.765367 0.152241 -0.500000
v -3.111140 0.337061 -0.500000
v -3.414214 0.585786 -0.500000
v -3.662939 0.888860 -0.500000
v -3.847759 1.234633 -0.500000
v -3.961571 1.609819 -0.500000
v -4.000000 2.000000 -0.500000
v -2.000000 0.000000 -2.000000
v -2.390181 0.038429 -2.000000
v -2.765367 0.152241 -2.000000
v -3.111140 0.337061 -2.000000
v -3.414214 0.585786 -2.000000
v -3.662939 0.888860 -2.000000
v -3.847759 1.234633 -2.000000
v -3.961571 1.609819 -2.000000
v -4.000000 2.000000 -2.000000
v 2.000000 0.110000 -2.000000
v 2.000000 0.110000 -0.500000
v 2.195091 0.110000 -0.514411
v 2.382684 0.110000 -0.557091
v 2.555571 0.110000 -0.626398
v 2.707107 0.110000 -0.719670
v 2.831470 0.110000 -0.833323
v 2.923880 0.110000 -0.962988
v 2.980785 0.110000 -1.103683
v 3.000000 0.110000 -1.250001
v 2.980785 0.110000 -1.396319
v 2.923879 0.110000 -1.537013
v 2.831469 0.110000 -1.666678
v 2.707106 0.110000 -1.780331
v 2.555569 0.110000 -1.873603
v 2.382682 0.110000 -1.942910
v 2.195089 0.110000 -1.985589
v 2.000000 0.000000 -2.000000
v 2.000000 0.000000 -0.500000
v 2.195091 0.000000 -0.514411
v 2.382684 0.000000 -0.557091
v 2.555571 0.000000 -0.626398
v 2.707107 0.000000 -0.719670
v 2.831470 0.000000 -0.833323
v 2.923880 0.000000 -0.962988
v 2.980785 0.000000 -1.103683
v 3.000000 0.000000 -1.250001
v 2.980785 0.000000 -1.396319
v 2.923879 0.000000 -1.537013
v 2.831469 0.000000 -1.666678
v 2.707106 0.000000 -1.780331
v 2.555569 0.000000 -1.873603
v 2.382682 0.000000 -1.942910
v 2.195089 0.000000 -1.985589
v 2.000000 2.110000 -2.000000
v 2.000000 2.110000 0.000000
v 2.195091 2.110000 -0.019215
v 2.382684 2.110000 -0.076121
v 2.555571 2.110000 -0.168531
v 2.707107 2.110000 -0.292894
v 2.831470 2.110000 -0.444430
v 2.923880 2.110000 -0.617317
v 2.980785 2.110000 -0.804911
v 3.000000 2.110000 -1.000001
v 2.980785 2.110000 -1.195091
v 2.923879 2.110000 -1.382684
v 2.831469 2.110000 -1.555571
v 2.707106 2.110000 -1.707108
v 2.555569 2.110000 -1.831470
v 2.382682 2.110000 -1.923880
v 2.195089 2.110000 -1.980786
v -2.000000 2.110000 0.000000
v -4.000000 2.110000 -2.000000
v -4.000000 2.110000 -0.000000
v -3.961571 2.110000 0.390180
v -3.847759 2.110000 0.765367
v -3.662939 2.110000 1.111140
v -3.414214 2.110000 1.414214
v -3.111140 2.110000 1.662939
v -2.765367 2.110000 1.847759
v -2.390180 2.110000 1.961571
v -1.999999 2.110000 2.000000
v 2.000000 2.000000 -2.000000
v 2.000000 2.000000 0.000000
v 2.195091 2.000000 -0.019215
v 2.382684 2.000000 -0.076121
v 2.555571 2.000000 -0.168531
v 2.707107 2.000000 -0.292894
v 2.831470 2.000000 -0.444430
v 2.923880 2.000000 -0.617317
v 2.980785 2.000000 -0.804911
v 3.000000 2.000000 -1.000001
v 2.980785 2.000000 -1.195091
v 2.923879 2.000000 -1.382684
v 2.831469 2.000000 -1.555571
v 2.707106 2.000000 -1.707108
v 2.555569 2.000000 -1.831470
v 2.382682 2.000000 -1.923880
v 2.195089 2.000000 -1.980786
v -2.000000 2.000000 0.000000
v -4.000000 2.000000 -2.000000
v -4.000000 2.000000 -0.000000
v -3.961571 2.000000 0.390180
v -3.847759 2.000000 0.765367
v -3.662939 2.000000 1.111140
v -3.414214 2.000000 1.414214
v -3.111140 2.000000 1.662939
v -2.765367 2.000000 1.847759
v -2.390180 2.000000 1.961571
v -1.999999 2.000000 2.000000
vn 0.0737 0.0000 -0.9973
vn 0.2218 0.0000 -0.9751
vn 0.3721 0.0000 -0.9282
vn 0.5242 0.0000 -0.8516
vn 0.6746 0.0000 -0.7382
vn 0.8144 0.0000 -0.5804
vn 0.9270 0.0000 -0.3750
vn 0.9915 0.0000 -0.1302
vn 0.9915 0.0000 0.1302
vn 0.9270 0.0000 0.3750
vn 0.8144 0.0000 0.5804
vn 0.6746 0.0000 0.7382
vn 0.5242 0.0000 0.8516
vn 0.3721 0.0000 0.9282
vn 0.2218 0.0000 0.9751
vn 0.0737 0.0000 0.9973
vn 0.0000 1.0000 0.0000
vn -1.0000 -0.0000 0.0000
vn 1.0000 0.0000 -0.0000
vn -0.0980 0.0000 0.9952
vn -0.2903 0.0000 0.9569
vn -0.4714 0.0000 0.8819
vn -0.6344 0.0000 0.7730
vn -0.7730 0.0000 0.6344
vn -0.8819 0.0000 0.4714
vn -0.9569 0.0000 0.2903
vn -0.9952 0.0000 0.0980
vn 0.0000 0.0000 -1.0000
vn 0.0980 0.0000 -0.9952
vn 0.2903 0.0000 -0.9569
vn 0.4714 0.0000 -0.8819
vn 0.6344 0.0000 -0.7730
vn 0.7730 0.0000 -0.6344
vn 0.8819 0.0000 -0.4714
vn 0.9569 0.0000 -0.2903
vn 0.9952 0.0000 -0.0980
vn 0.9952 0.0000 0.0980
vn 0.9569 0.0000 0.2903
vn 0.8819 0.0000 0.4714
vn 0.7730 0.0000 0.6344
vn 0.6344 0.0000 0.7730
vn 0.4714 0.0000 0.8819
vn 0.2903 0.0000 0.9569
vn 0.0980 0.0000 0.9952
vn 0.0000 0.0000 1.0000
vn 0.0000 -1.0000 0.0000
vn -0.0980 -0.9952 0.0000
vn -0.2903 -0.9569 0.0000
vn -0.4714 -0.8819 0.0000
vn -0.6344 -0.7730 0.0000
vn -0.7730 -0.6344 0.0000
vn -0.8819 -0.4714 0.0000
vn -0.9569 -0.2903 0.0000
vn -0.9952 -0.0980 -0.0000
vn 0.9952 0.0980 0.0000
vn 0.9569 0.2903 0.0000
vn 0.8819 0.4714 0.0000
vn 0.7730 0.6344 0.0000
vn 0.6344 0.7730 0.0000
vn 0.4714 0.8819 0.0000
vn 0.2903 0.9569 0.0000
vn 0.0980 0.9952 0.0000
usemtl None
s off
f 53//1 70//1 54//1 37//1
f 52//2 69//2 70//2 53//2
f 51//3 68//3 69//3 52//3
f 50//4 67//4 68//4 51//4
f 49//5 66//5 67//5 50//5
f 48//6 65//6 66//6 49//6
f 47//7 64//7 65//7 48//7
f 46//8 63//8 64//8 47//8
f 45//9 62//9 63//9 46//9
f 44//10 61//10 62//10 45//10
f 43//11 60//11 61//11 44//11
f 42//12 59//12 60//12 43//12
f 41//13 58//13 59//13 42//13
f 40//14 57//14 58//14 41//14
f 39//15 56//15 57//15 40//15
f 38//16 55//16 56//16 39//16
f 73//17 74//17 75//17 76//17 77//17 78//17 79//17 80//17 81//17 82//17 83//17 84//17 85//17 86//17 87//17 71//17 89//17 90//17 91//17 92//17 93//17 94//17 95//17 96//17 97//17 98//17 88//17 72//17
f 89//18 117//18 27//18 118//18 90//18
f 88//19 98//19 126//19 116//19
f 97//20 125//20 126//20 98//20
f 96//21 124//21 125//21 97//21
f 95//22 123//22 124//22 96//22
f 94//23 122//23 123//23 95//23
f 93//24 121//24 122//24 94//24
f 92//25 120//25 121//25 93//25
f 91//26 119//26 120//26 92//26
f 90//27 118//27 119//27 91//27
f 89//28 71//28 99//28 117//28
f 87//29 115//29 99//29 71//29
f 86//30 114//30 115//30 87//30
f 85//31 113//31 114//31 86//31
f 84//32 112//32 113//32 85//32
f 83//33 111//33 112//33 84//33
f 82//34 110//34 111//34 83//34
f 81//35 109//35 110//35 82//35
f 80//36 108//36 109//36 81//36
f 79//37 107//37 108//37 80//37
f 78//38 106//38 107//38 79//38
f 77//39 105//39 106//39 78//39
f 76//40 104//40 105//40 77//40
f 75//41 103//41 104//41 76//41
f 74//42 102//42 103//42 75//42
f 73//43 101//43 102//43 74//43
f 72//44 100//44 101//44 73//44
f 88//45 116//45 100//45 72//45
f 37//28 54//28 28//28 1//28
f 56//46 55//46 19//46 28//46 54//46 70//46 69//46 68//46 67//46 66//46 65//46 64//46 63//46 62//46 61//46 60//46 59//46 58//46 57//46
f 39//17 40//17 41//17 42//17 43//17 44//17 45//17 46//17 47//17 48//17 49//17 50//17 51//17 52//17 53//17 37//17 1//17 10//17 38//17
f 19//47 20//47 29//47 28//47
f 20//48 21//48 30//48 29//48
f 21//49 22//49 31//49 30//49
f 22//50 23//50 32//50 31//50
f 23//51 24//51 33//51 32//51
f 24//52 25//52 34//52 33//52
f 25//53 26//53 35//53 34//53
f 26//54 27//54 117//54 35//54
f 10//45 11//45 12//45 13//45 14//45 15//45 16//45 17//45 18//45 27//45 26//45 25//45 24//45 23//45 22//45 21//45 20//45 19//45
f 1//28 28//28 29//28 30//28 31//28 32//28 33//28 34//28 35//28 117//28 9//28 8//28 7//28 6//28 5//28 4//28 3//28 2//28
f 8//55 9//55 18//55 17//55
f 7//56 8//56 17//56 16//56
f 6//57 7//57 16//57 15//57
f 5//58 6//58 15//58 14//58
f 4//59 5//59 14//59 13//59
f 3//60 4//60 13//60 12//60
f 2//61 3//61 12//61 11//61
f 1//62 2//62 11//62 10//62
f 55//45 38//45 10//45 19//45
f 101//46 100//46 116//46 126//46 125//46 124//46 123//46 122//46 121//46 120//46 119//46 118//46 27//46 18//46 9//46 99//46 115//46 114//46 113//46 112//46 111//46 110//46 109//46 108//46 107//46 106//46 105//46 104//46 103//46 102//46
l 36 35
